<svg width="57" height="12" viewBox="0 0 57 12" fill="none" xmlns="http://www.w3.org/2000/svg">
<g clip-path="url(#clip0_39_20412)">
<mask id="mask0_39_20412" style="mask-type:luminance" maskUnits="userSpaceOnUse" x="0" y="0" width="57" height="12">
<path d="M56.978 0H0V11.9591H56.978V0Z" fill="white"/>
</mask>
<g mask="url(#mask0_39_20412)">
<path d="M50.3045 3.46598V2.54688H44.2871V3.46598L46.7743 3.46799V9.38351L47.8173 9.3815V3.46665H50.3045V3.46598Z" fill="#5D666F"/>
<path d="M31.2305 9.38151H36.3212V8.46241H32.2424V6.29503H35.4105V5.41414H32.2424V3.46598H36.3212V3.46531V2.54688H31.2305V9.38151Z" fill="#5D666F"/>
<path d="M19.1858 3.27682C20.1929 3.27682 21.0066 3.78095 21.4644 4.62363L21.485 4.65849L21.5215 4.64106L22.3283 4.23816L22.3676 4.21805L22.3469 4.18185C21.7294 3.04017 20.5564 2.34766 19.1858 2.34766C17.135 2.34766 15.5234 3.90699 15.5234 5.96308C15.5234 8.01914 17.135 9.57847 19.1858 9.57847C20.5564 9.57847 21.7294 8.88529 22.3469 7.74428L22.3676 7.70741L22.329 7.68797L21.5222 7.28507V7.28641L21.4843 7.26764L21.4644 7.30384C21.0059 8.14652 20.1929 8.65065 19.1858 8.65065C17.6492 8.65065 16.5085 7.50294 16.5085 5.96375C16.5085 4.42453 17.6492 3.27682 19.1858 3.27682Z" fill="#5D666F"/>
<path d="M42.8439 6.2124H42.8452C42.5079 5.90536 42.0398 5.69486 41.4966 5.57151L40.1308 5.26849L40.051 5.25039C39.662 5.15654 39.3929 5.03385 39.2208 4.88369C39.0459 4.73084 38.9585 4.53978 38.9585 4.27899C38.9585 4.01821 39.0969 3.75944 39.3619 3.57441C39.6304 3.38737 40.029 3.26737 40.5281 3.26536C41.5572 3.26134 42.1114 3.77486 42.4315 4.50358L43.2858 4.07788C42.9216 3.03207 41.9964 2.34961 40.5377 2.34961C39.079 2.34961 37.9011 3.16011 37.9011 4.31587C37.9011 4.83743 38.1152 5.26112 38.4739 5.58156C38.8277 5.89732 39.3165 6.10849 39.8665 6.2305L41.0629 6.49397C41.5173 6.5952 41.8381 6.72525 42.0419 6.88883C42.236 7.04436 42.3324 7.23542 42.3324 7.49285C42.3324 7.85687 42.1706 8.1438 41.8828 8.34559C41.5889 8.5514 41.1524 8.67542 40.6058 8.67542C40.0179 8.67542 39.5657 8.51788 39.2283 8.26715C38.9041 8.02648 38.7182 7.7657 38.4883 7.30581L37.6602 7.71877C38.005 8.72436 39.0294 9.58112 40.6065 9.58112C42.1837 9.58112 43.3994 8.74179 43.3994 7.46469C43.3994 6.95452 43.197 6.53352 42.8439 6.2124Z" fill="#5D666F"/>
<path d="M54.5924 3.18956C54.4258 2.73504 53.9997 2.44141 53.5033 2.44141H53.5013C53.0042 2.44208 52.5781 2.73638 52.4129 3.19224L50.0352 9.38199H51.1387L51.7486 7.80657H55.2608L55.8728 9.38199H55.8735L56.9777 9.38266L54.5924 3.18956ZM52.099 6.90556L53.4132 3.36521C53.4462 3.27671 53.5749 3.27671 53.6073 3.36521L54.9125 6.90556H52.099Z" fill="#5D666F"/>
<path d="M27.6515 6.64827C28.4893 6.52693 29.5116 5.76469 29.5116 4.59352C29.5116 3.42235 28.6497 2.54883 27.1855 2.54883H24.0078V9.38281H25.0101V6.53631C25.0101 6.44581 25.1223 6.40157 25.1871 6.46592L28.11 9.38214H29.4015L26.6589 6.68447C27.1552 6.68447 27.4464 6.67441 27.6502 6.64827H27.6515ZM25.0115 5.83307V3.46659L27.1862 3.46592C28.0185 3.46592 28.4893 3.92916 28.4893 4.59352C28.4893 5.25788 28.0185 5.83307 27.1862 5.83307H25.0115Z" fill="#5D666F"/>
<path d="M11.2053 4.62517C11.1744 4.69959 11.0711 4.71165 11.0222 4.6473C10.9782 4.58897 10.9513 4.54942 10.9513 4.54942C10.5314 3.91322 10.0282 3.30718 9.45541 2.74942C9.0162 2.32171 8.54671 1.93355 8.05863 1.59165L8.00424 1.55545L7.94435 1.56484C7.60153 1.61713 7.2704 1.71232 6.97439 1.82026L6.82913 1.87389L6.96131 1.95433C7.61048 2.34383 8.23555 2.82651 8.80624 3.38294C9.33287 3.89579 9.79479 4.45154 10.1782 5.03411C10.3806 5.34115 10.7234 5.51947 11.0876 5.51947C11.1523 5.51947 11.2177 5.51344 11.2831 5.50204C11.4876 5.46584 11.6755 5.37467 11.8263 5.23925C11.9887 5.09311 12.1003 4.90137 12.1478 4.68551C12.3102 3.94942 12.3254 3.26093 12.1953 2.63813C12.0555 1.96908 11.7526 1.40327 11.2955 0.958804C10.6932 0.374892 9.8595 0.0450599 8.88403 0.00416613C8.03591 -0.0306942 7.09142 0.153663 6.14004 0.540479C5.18935 0.154334 4.24417 -0.0306942 3.39674 0.00416613C2.42127 0.0443896 1.58761 0.374892 0.98663 0.960144C0.384967 1.54607 0.0462708 2.35724 0.00427807 3.30785C-0.031519 4.13378 0.157793 5.05355 0.555003 5.98003V5.98137C0.717463 6.3273 0.916412 6.72616 1.12775 7.09153V7.08952C1.58141 7.83767 2.15692 8.55767 2.82536 9.20862C3.44837 9.81533 4.13264 10.3429 4.84514 10.77C4.90366 10.8048 4.89058 10.8913 4.8238 10.9074C4.33779 11.0261 3.86898 11.079 3.43598 11.0609C3.06493 11.0462 2.72348 10.9785 2.42127 10.8625C2.11906 10.7465 1.8554 10.5796 1.63717 10.3664C1.41895 10.1539 1.24754 9.89711 1.12775 9.60281C1.00866 9.30851 0.93913 8.976 0.923985 8.61466C0.915724 8.41756 0.922608 8.21309 0.945326 8.00326V7.99186L0.948768 7.94963L0.921231 7.90739C0.724347 7.62047 0.530909 7.2846 0.354677 6.95075L0.264496 6.77778L0.211488 6.96617C0.0531549 7.55075 -0.0177509 8.12125 0.00496648 8.65153C0.0462708 9.60147 0.385655 10.4133 0.98663 10.9986C1.58761 11.5838 2.42127 11.9143 3.39674 11.9545C3.4642 11.9572 3.53304 11.9592 3.60119 11.9592C4.39562 11.9592 5.26507 11.7742 6.14004 11.4189C7.01501 11.7735 7.88515 11.9592 8.67888 11.9592C8.74704 11.9592 8.81588 11.9579 8.88334 11.9545C9.85881 11.9143 10.6925 11.5838 11.2934 10.9986C11.7499 10.5541 12.0528 9.98896 12.1932 9.31924C12.3233 8.69644 12.3075 8.00728 12.1457 7.27186C12.0982 7.05533 11.9874 6.86427 11.8242 6.71812V6.71611C11.6542 6.56394 11.438 6.46808 11.2046 6.4426C10.7888 6.39769 10.3875 6.6035 10.1603 6.94538C9.77896 7.51857 9.32323 8.06628 8.80417 8.57242C8.23348 9.12818 7.60772 9.61153 6.95925 10.001L6.82775 10.0788L6.97232 10.1351C7.26834 10.243 7.59946 10.3376 7.94298 10.3905L8.00631 10.4012L8.05725 10.3637C8.54533 10.0225 9.01551 9.63365 9.45403 9.20594C10.0268 8.64818 10.5307 8.04281 10.9499 7.40594C10.9499 7.40594 10.9775 7.36572 11.0215 7.30806C11.0704 7.24371 11.173 7.25644 11.2046 7.33019C11.2212 7.36907 11.2336 7.41063 11.2459 7.45823C11.5165 8.68974 11.3031 9.72214 10.6429 10.3644C10.4247 10.5769 10.161 10.7438 9.85881 10.8605C9.5566 10.9764 9.21515 11.0442 8.8441 11.0589C8.38287 11.0783 7.88102 11.0167 7.36127 10.8812C6.78645 10.7371 6.27978 10.5139 5.93076 10.3362C5.06543 9.90516 4.22351 9.30181 3.47522 8.57309C2.66703 7.78605 2.00822 6.89242 1.56145 5.97802C2.00891 5.06361 2.66703 4.16998 3.47522 3.38294C4.21525 2.66227 5.04754 2.06361 5.90391 1.63322C6.25706 1.45221 6.78026 1.21892 7.37711 1.07076C7.89135 0.937351 8.38838 0.878357 8.84479 0.897128C9.21584 0.911876 9.55729 0.979586 9.8595 1.09556C10.1617 1.21154 10.4254 1.37847 10.6436 1.59165C11.3031 2.23389 11.5179 3.26629 11.2466 4.4978C11.2349 4.5454 11.2219 4.58629 11.2053 4.62517ZM4.84514 1.18674C4.13264 1.61378 3.44768 2.14204 2.82399 2.74875C2.20098 3.35545 1.65851 4.02249 1.22 4.71702C1.1842 4.774 1.09609 4.76059 1.07956 4.69623H1.08025C0.957717 4.2216 0.904021 3.76506 0.922608 3.34271C0.937753 2.98137 1.00728 2.64886 1.12638 2.35456C1.24547 2.06026 1.41688 1.8035 1.6358 1.59098C1.85402 1.37847 2.11768 1.21154 2.41989 1.09489C2.7221 0.978915 3.06355 0.911206 3.4346 0.896457C3.48967 0.894446 3.54612 0.892435 3.60188 0.892435C3.98808 0.892435 4.39906 0.945396 4.8238 1.04998C4.89058 1.06674 4.90435 1.15188 4.84514 1.18674Z" fill="#5D666F"/>
</g>
</g>
<defs>
<clipPath id="clip0_39_20412">
<rect width="57" height="12" fill="white"/>
</clipPath>
</defs>
</svg>
