<svg width="12" height="12" viewBox="0 0 12 12" fill="none" xmlns="http://www.w3.org/2000/svg">
<path d="M3.5 7C2.97961 7.29379 2.55882 7.73629 2.29157 8.27079C2.02433 8.80529 1.92279 9.40742 2 10C2.59258 10.0772 3.19471 9.97567 3.72921 9.70842C4.26371 9.44117 4.70621 9.02038 5 8.5M2 6.5C2.89155 6.60595 3.72152 7.00877 4.35638 7.64362C4.99123 8.27848 5.39405 9.10845 5.5 10C5.94196 9.7452 6.31165 9.38191 6.57411 8.94447C6.83658 8.50702 6.98316 8.00987 7 7.5C7.83956 7.20466 8.57268 6.667 9.10667 5.95501C9.64067 5.24301 9.95155 4.38867 10 3.5C10 3.10218 9.84196 2.72064 9.56066 2.43934C9.27936 2.15804 8.89782 2 8.5 2C7.61133 2.04845 6.75699 2.35933 6.04499 2.89333C5.333 3.42732 4.79534 4.16044 4.5 5C3.99013 5.01684 3.49298 5.16342 3.05553 5.42589C2.61809 5.68835 2.2548 6.05804 2 6.5ZM7 4.5C7 4.63261 7.05268 4.75979 7.14645 4.85355C7.24021 4.94732 7.36739 5 7.5 5C7.63261 5 7.75979 4.94732 7.85355 4.85355C7.94732 4.75979 8 4.63261 8 4.5C8 4.36739 7.94732 4.24021 7.85355 4.14645C7.75979 4.05268 7.63261 4 7.5 4C7.36739 4 7.24021 4.05268 7.14645 4.14645C7.05268 4.24021 7 4.36739 7 4.5Z" stroke="#25252A" stroke-width="1.2" stroke-linecap="round" stroke-linejoin="round"/>
</svg>
