<svg width="14" height="14" viewBox="0 0 14 14" fill="none" xmlns="http://www.w3.org/2000/svg">
<path d="M8.76676 3.3508C9.12587 3.3508 9.47026 3.49345 9.72418 3.74738C9.9781 4.0013 10.1208 4.34569 10.1208 4.70479M8.76676 0.642822C9.84407 0.642822 10.8772 1.07078 11.639 1.83255C12.4008 2.59431 12.8287 3.62749 12.8287 4.70479M1.99681 1.31982H4.70479L6.05878 4.70479L4.3663 5.72029C5.09133 7.1904 6.28116 8.38023 7.75127 9.10526L8.76676 7.41277L12.1517 8.76676V11.4747C12.1517 11.8338 12.0091 12.1782 11.7552 12.4322C11.5012 12.6861 11.1569 12.8287 10.7978 12.8287C8.15697 12.6683 5.66623 11.5468 3.79547 9.67608C1.92472 7.80533 0.803304 5.31459 0.642822 2.67381C0.642822 2.31471 0.785474 1.97031 1.0394 1.71639C1.29332 1.46247 1.63771 1.31982 1.99681 1.31982Z" stroke="white" stroke-width="1.28579" stroke-linejoin="round"/>
</svg>
