<svg width="12" height="12" viewBox="0 0 12 12" fill="none" xmlns="http://www.w3.org/2000/svg">
<path d="M5.99989 1.49997C6.06589 1.49997 6.13139 1.49997 6.19639 1.49997C5.55406 2.09683 5.14119 2.89989 5.02954 3.76958C4.91789 4.63927 5.11452 5.52059 5.58526 6.26034C6.056 7.00009 6.77108 7.55149 7.60619 7.81871C8.44131 8.08592 9.34366 8.05205 10.1564 7.72297C9.84376 8.47522 9.33279 9.12849 8.67799 9.6131C8.02318 10.0977 7.24911 10.3955 6.43834 10.4747C5.62758 10.5538 4.81052 10.4114 4.07434 10.0627C3.33815 9.7139 2.71045 9.17182 2.25819 8.49427C1.80592 7.81672 1.54607 7.02911 1.50633 6.21546C1.4666 5.4018 1.64848 4.59262 2.03258 3.87423C2.41667 3.15584 2.98857 2.55518 3.68727 2.13634C4.38597 1.71749 5.18527 1.49617 5.99989 1.49597V1.49997Z" stroke="#25252A" stroke-width="1.2" stroke-linecap="round" stroke-linejoin="round"/>
</svg>
