<svg width="18" height="18" viewBox="0 0 18 18" fill="none" xmlns="http://www.w3.org/2000/svg">
<path d="M9 15.75C7.20979 15.75 5.4929 15.0388 4.22703 13.773C2.96116 12.5071 2.25 10.7902 2.25 9C2.25 7.20979 2.96116 5.4929 4.22703 4.22703C5.4929 2.96116 7.20979 2.25 9 2.25C12.7275 2.25 15.75 4.9365 15.75 8.25C15.75 9.045 15.3945 9.8085 14.7615 10.371C14.1285 10.9335 13.2697 11.25 12.375 11.25H10.5C10.1654 11.2446 9.8386 11.3513 9.57159 11.553C9.30458 11.7547 9.11271 12.04 9.02648 12.3633C8.94025 12.6867 8.96463 13.0296 9.09574 13.3375C9.22684 13.6454 9.45714 13.9006 9.75 14.0625C9.89975 14.2007 10.0024 14.3823 10.0437 14.5818C10.0849 14.7814 10.0625 14.9888 9.97977 15.175C9.89702 15.3612 9.75801 15.5168 9.58227 15.62C9.40654 15.7231 9.20291 15.7686 9 15.75Z" stroke="#25252A" stroke-width="1.5" stroke-linecap="round" stroke-linejoin="round"/>
<path d="M5.625 7.875C5.625 8.07391 5.70402 8.26468 5.84467 8.40533C5.98532 8.54598 6.17609 8.625 6.375 8.625C6.57391 8.625 6.76468 8.54598 6.90533 8.40533C7.04598 8.26468 7.125 8.07391 7.125 7.875C7.125 7.67609 7.04598 7.48532 6.90533 7.34467C6.76468 7.20402 6.57391 7.125 6.375 7.125C6.17609 7.125 5.98532 7.20402 5.84467 7.34467C5.70402 7.48532 5.625 7.67609 5.625 7.875Z" stroke="#25252A" stroke-width="1.5" stroke-linecap="round" stroke-linejoin="round"/>
<path d="M8.625 5.625C8.625 5.82391 8.70402 6.01468 8.84467 6.15533C8.98532 6.29598 9.17609 6.375 9.375 6.375C9.57391 6.375 9.76468 6.29598 9.90533 6.15533C10.046 6.01468 10.125 5.82391 10.125 5.625C10.125 5.42609 10.046 5.23532 9.90533 5.09467C9.76468 4.95402 9.57391 4.875 9.375 4.875C9.17609 4.875 8.98532 4.95402 8.84467 5.09467C8.70402 5.23532 8.625 5.42609 8.625 5.625Z" stroke="#25252A" stroke-width="1.5" stroke-linecap="round" stroke-linejoin="round"/>
<path d="M11.625 7.875C11.625 8.07391 11.704 8.26468 11.8447 8.40533C11.9853 8.54598 12.1761 8.625 12.375 8.625C12.5739 8.625 12.7647 8.54598 12.9053 8.40533C13.046 8.26468 13.125 8.07391 13.125 7.875C13.125 7.67609 13.046 7.48532 12.9053 7.34467C12.7647 7.20402 12.5739 7.125 12.375 7.125C12.1761 7.125 11.9853 7.20402 11.8447 7.34467C11.704 7.48532 11.625 7.67609 11.625 7.875Z" stroke="#25252A" stroke-width="1.5" stroke-linecap="round" stroke-linejoin="round"/>
</svg>
