<svg width="16" height="16" viewBox="0 0 16 16" fill="none" xmlns="http://www.w3.org/2000/svg">
<path d="M10 5.33333H10.0067M2 10.6666L5.33333 7.3333C5.952 6.73797 6.71467 6.73797 7.33333 7.3333L10.6667 10.6666M9.33333 9.3333L10 8.66663C10.6187 8.0713 11.3813 8.0713 12 8.66663L14 10.6666M2 4C2 3.46957 2.21071 2.96086 2.58579 2.58579C2.96086 2.21071 3.46957 2 4 2H12C12.5304 2 13.0391 2.21071 13.4142 2.58579C13.7893 2.96086 14 3.46957 14 4V12C14 12.5304 13.7893 13.0391 13.4142 13.4142C13.0391 13.7893 12.5304 14 12 14H4C3.46957 14 2.96086 13.7893 2.58579 13.4142C2.21071 13.0391 2 12.5304 2 12V4Z" stroke="#25252A" stroke-width="1.2" stroke-linecap="round" stroke-linejoin="round"/>
</svg>
