<svg width="14" height="14" viewBox="0 0 14 14" fill="none" xmlns="http://www.w3.org/2000/svg">
<path d="M8.76701 3.3508C9.12611 3.3508 9.4705 3.49345 9.72442 3.74738C9.97835 4.0013 10.121 4.34569 10.121 4.70479M8.76701 0.642822C9.84431 0.642822 10.8775 1.07078 11.6393 1.83255C12.401 2.59431 12.829 3.62749 12.829 4.70479M1.99706 1.31982H4.70504L6.05903 4.70479L4.36654 5.72029C5.09157 7.1904 6.2814 8.38023 7.75152 9.10526L8.76701 7.41277L12.152 8.76676V11.4747C12.152 11.8338 12.0093 12.1782 11.7554 12.4322C11.5015 12.6861 11.1571 12.8287 10.798 12.8287C8.15722 12.6683 5.66647 11.5468 3.79572 9.67608C1.92496 7.80533 0.803548 5.31459 0.643066 2.67381C0.643066 2.31471 0.785718 1.97031 1.03964 1.71639C1.29356 1.46247 1.63796 1.31982 1.99706 1.31982Z" stroke="white" stroke-width="1.28579" stroke-linejoin="round"/>
</svg>
