<svg width="20" height="20" viewBox="0 0 20 20" fill="none" xmlns="http://www.w3.org/2000/svg">
<path d="M18.2461 7.73489C18.1956 7.85932 18.0274 7.87951 17.9479 7.77189C17.8761 7.67439 17.8324 7.6082 17.8324 7.6082C17.1486 6.54426 16.3292 5.53076 15.3966 4.59801C14.6814 3.8827 13.9169 3.23358 13.1221 2.66183L13.0336 2.60127L12.9361 2.61695C12.3778 2.70439 11.8386 2.86364 11.3566 3.04414L11.1201 3.13383L11.3354 3.26833C12.3924 3.9197 13.4103 4.72689 14.3395 5.65745C15.1971 6.51514 15.9492 7.44451 16.5736 8.41876C16.9031 8.93226 17.4614 9.23045 18.0544 9.23045C18.1598 9.23045 18.2662 9.22038 18.3727 9.20132C18.7056 9.14076 19.0116 8.98832 19.2571 8.76182C19.5217 8.51745 19.7033 8.19682 19.7806 7.83582C20.0452 6.60483 20.0698 5.45339 19.858 4.41189C19.6304 3.29302 19.1372 2.34677 18.3929 1.60346C17.4121 0.626956 16.0546 0.0753939 14.4662 0.00695642C13.0852 -0.0512935 11.5472 0.257019 9.99807 0.903893C8.45001 0.258144 6.91095 -0.0512935 5.53108 0.00695642C3.94264 0.0742689 2.58521 0.626956 1.60658 1.60571C0.626895 2.58558 0.075395 3.94214 0.00695759 5.53189C-0.0512924 6.91314 0.256958 8.45132 0.903769 10.0007V10.0029C1.16827 10.5814 1.49227 11.2485 1.83639 11.8595V11.8561C2.57508 13.1073 3.5122 14.3114 4.60064 15.4C5.61514 16.4146 6.72933 17.2969 7.88951 18.0111C7.98483 18.0694 7.96351 18.2141 7.85476 18.2409C7.06339 18.4394 6.30001 18.5279 5.59495 18.4977C4.99077 18.473 4.43477 18.3598 3.94264 18.1658C3.45058 17.9719 3.02121 17.6928 2.66589 17.3362C2.31052 16.9808 2.03146 16.5514 1.83639 16.0593C1.64246 15.5671 1.52927 15.011 1.50458 14.4067C1.49114 14.0771 1.50233 13.7351 1.53933 13.3843V13.3652L1.54496 13.2946L1.50008 13.2239C1.17952 12.7441 0.864519 12.1824 0.577582 11.6241L0.430707 11.3348L0.344395 11.6499C0.0865824 12.6275 -0.0288545 13.5816 0.00808292 14.4684C0.0753954 16.057 0.62802 17.4147 1.60658 18.3934C2.58521 19.3722 3.94264 19.9249 5.53108 19.9921C5.64089 19.9966 5.75302 20 5.86395 20C7.15758 20 8.57333 19.6906 9.99807 19.0964C11.4228 19.6894 12.8397 20 14.1321 20C14.2431 20 14.3552 19.9977 14.4651 19.9921C16.0534 19.9249 17.4109 19.3722 18.3895 18.3934C19.1327 17.6501 19.6259 16.705 19.8546 15.585C20.0665 14.5435 20.0407 13.3909 19.7773 12.1611C19.6999 11.7989 19.5194 11.4794 19.2538 11.2351V11.2317C18.9769 10.9772 18.6249 10.8169 18.2449 10.7743C17.5679 10.6991 16.9143 11.0433 16.5444 11.6151C15.9234 12.5737 15.1813 13.4896 14.3361 14.3361C13.4069 15.2655 12.3879 16.0738 11.332 16.7252L11.1179 16.8553L11.3533 16.9494C11.8353 17.1299 12.3745 17.288 12.9338 17.3766L13.0369 17.3945L13.1199 17.3318C13.9147 16.7611 14.6803 16.1108 15.3943 15.3956C16.3269 14.4628 17.1475 13.4504 17.8302 12.3853C17.8302 12.3853 17.875 12.3181 17.9468 12.2216C18.0263 12.114 18.1934 12.1353 18.2449 12.2586C18.2718 12.3236 18.292 12.3932 18.3122 12.4728C18.7527 14.5323 18.4052 16.2588 17.3302 17.3328C16.9749 17.6883 16.5456 17.9674 16.0534 18.1625C15.5614 18.3564 15.0054 18.4697 14.4012 18.4943C13.6501 18.5268 12.8329 18.4237 11.9866 18.1973C11.0506 17.9562 10.2256 17.5829 9.65726 17.2858C8.24826 16.5649 6.87733 15.5559 5.65883 14.3372C4.34283 13.021 3.27008 11.5266 2.54258 9.99732C3.2712 8.46814 4.34283 6.97364 5.65883 5.65745C6.86389 4.45227 8.21908 3.45108 9.61357 2.73133C10.1886 2.42864 11.0406 2.03845 12.0124 1.7907C12.8498 1.56758 13.6591 1.46896 14.4023 1.50033C15.0065 1.52502 15.5625 1.63821 16.0546 1.83221C16.5467 2.02614 16.976 2.30527 17.3313 2.66183C18.4052 3.73583 18.7549 5.46239 18.3133 7.52189C18.2943 7.60151 18.2729 7.66989 18.2461 7.73489ZM7.88951 1.98464C6.72933 2.69883 5.61402 3.58227 4.59839 4.59689C3.58396 5.61151 2.70064 6.72701 1.98658 7.88851C1.92833 7.98376 1.78483 7.96139 1.75789 7.85376H1.75902C1.55952 7.05995 1.47208 6.29651 1.50233 5.5902C1.52702 4.98589 1.64021 4.42983 1.83414 3.93764C2.02808 3.44545 2.30721 3.01608 2.66364 2.6607C3.01902 2.30527 3.44833 2.02614 3.94039 1.83108C4.43252 1.63708 4.98852 1.52389 5.5927 1.4992C5.68239 1.49583 5.77433 1.49246 5.86508 1.49246C6.49395 1.49246 7.16314 1.58102 7.85476 1.75595C7.96351 1.78395 7.98595 1.92633 7.88951 1.98464Z" fill="#25252A"/>
</svg>
